<?xml version="1.0" standalone="no"?>
<!DOCTYPE svg PUBLIC "-//W3C//DTD SVG 20010904//EN"
 "http://www.w3.org/TR/2001/REC-SVG-20010904/DTD/svg10.dtd">
<svg version="1.0" xmlns="http://www.w3.org/2000/svg"
 width="640.000000pt" height="640.000000pt" viewBox="0 0 640.000000 640.000000"
 preserveAspectRatio="xMidYMid meet">
<metadata>
Created by potrace 1.14, written by Peter Selinger 2001-2017
</metadata>
<g transform="translate(0.000000,640.000000) scale(0.100000,-0.100000)"
fill="#000000" stroke="none">
<path d="M3234 5366 c-3 -8 -11 -13 -17 -10 -24 9 -83 10 -104 2 -14 -4 -23
-4 -23 3 0 6 -5 7 -12 3 -6 -4 -36 -9 -67 -11 -78 -4 -117 -9 -129 -17 -6 -3
-14 -2 -17 4 -4 7 -11 8 -18 1 -7 -5 -28 -12 -48 -15 -20 -3 -42 -8 -50 -10
-8 -3 -27 -8 -44 -11 -41 -8 -60 -13 -60 -16 0 -1 -15 -3 -33 -3 -19 -1 -37
-7 -40 -13 -7 -10 -14 -11 -66 -16 -13 -1 -22 -5 -19 -9 4 -7 -12 -12 -29 -9
-5 0 -8 -4 -8 -11 0 -6 -3 -9 -6 -5 -4 3 -19 0 -34 -8 -15 -8 -30 -11 -34 -8
-3 4 -6 1 -6 -5 0 -7 -4 -12 -9 -12 -5 0 -22 -5 -38 -12 -15 -6 -31 -11 -35
-10 -5 1 -8 -4 -8 -11 0 -8 -4 -7 -10 3 -8 13 -10 13 -10 -1 0 -14 -11 -21
-48 -29 -4 -1 -14 -7 -22 -14 -8 -6 -35 -22 -60 -36 -25 -13 -56 -32 -69 -42
-13 -10 -30 -18 -37 -18 -8 0 -14 -5 -14 -11 0 -5 -4 -7 -10 -4 -5 3 -10 2
-10 -3 0 -5 -19 -22 -42 -38 -24 -16 -54 -39 -67 -51 -14 -12 -28 -20 -32 -18
-4 3 -9 -2 -12 -10 -4 -8 -25 -28 -48 -45 -23 -16 -39 -30 -35 -30 4 0 -7 -12
-26 -27 -47 -40 -148 -145 -148 -155 0 -4 -7 -8 -15 -8 -8 0 -14 -3 -13 -7 2
-14 -14 -43 -22 -38 -4 2 -12 -7 -18 -20 -7 -14 -16 -25 -22 -25 -5 0 -10 -6
-10 -14 0 -8 -9 -21 -20 -29 -11 -8 -18 -16 -15 -19 3 -3 -6 -17 -19 -31 -14
-15 -22 -27 -18 -27 4 0 2 -4 -3 -8 -17 -12 -95 -142 -95 -158 0 -8 -4 -12
-10 -9 -5 3 -10 1 -10 -6 0 -15 -42 -102 -53 -110 -5 -3 -9 -9 -8 -12 1 -19
-22 -66 -30 -61 -5 3 -6 -1 -4 -9 3 -7 -2 -31 -12 -53 -17 -41 -20 -47 -22
-65 0 -5 -5 -8 -10 -5 -4 3 -6 -6 -3 -19 2 -14 0 -25 -5 -25 -5 0 -10 -12 -11
-26 -1 -15 -6 -32 -12 -39 -5 -6 -7 -15 -3 -18 3 -4 0 -13 -7 -22 -7 -8 -9
-15 -5 -15 4 0 1 -8 -6 -17 -12 -14 -12 -15 -1 -9 12 7 12 4 2 -14 -7 -12 -13
-32 -15 -44 -1 -11 -6 -37 -10 -56 -4 -19 -9 -48 -10 -65 -2 -16 -4 -32 -5
-35 -5 -12 -7 -28 -8 -68 -1 -26 -6 -41 -12 -37 -5 3 -10 1 -10 -4 0 -6 4 -11
8 -11 4 0 6 -24 5 -52 -5 -76 -4 -235 1 -290 2 -26 0 -46 -4 -43 -5 3 -12 1
-15 -5 -4 -6 -1 -9 7 -8 7 2 14 -6 14 -17 1 -11 3 -22 4 -25 2 -3 4 -16 5 -30
2 -14 6 -45 11 -70 4 -25 8 -57 8 -72 1 -16 5 -28 10 -28 4 0 6 -9 3 -20 -3
-11 -2 -22 3 -25 4 -2 10 -19 14 -37 10 -51 48 -172 58 -182 12 -15 10 -28 -4
-21 -7 4 -5 0 5 -8 10 -9 18 -17 17 -19 -2 -6 11 -42 26 -70 8 -16 13 -28 10
-28 -2 0 11 -30 30 -67 19 -36 33 -72 30 -79 -3 -8 0 -13 7 -11 7 1 11 -6 11
-15 -1 -10 2 -15 7 -12 5 3 9 -2 9 -10 0 -9 4 -16 9 -16 5 0 14 -15 22 -32 7
-18 19 -37 26 -41 7 -5 11 -12 8 -18 -4 -5 -1 -9 5 -9 6 0 8 -4 5 -10 -3 -5
-2 -10 3 -10 6 0 24 -22 42 -49 17 -28 44 -65 61 -83 16 -18 27 -39 24 -46 -3
-7 0 -10 5 -7 9 6 56 -40 54 -53 0 -9 78 -81 89 -82 4 0 7 -9 7 -20 0 -11 3
-19 8 -19 18 3 32 -2 32 -11 0 -5 11 -20 25 -34 14 -14 25 -23 25 -20 0 2 14
-9 31 -26 18 -16 36 -30 41 -30 5 0 7 -4 4 -9 -3 -5 4 -11 17 -15 12 -3 36
-18 52 -33 37 -34 111 -83 125 -83 6 0 8 -4 5 -10 -3 -5 1 -10 9 -10 9 0 16
-5 16 -11 0 -5 4 -8 9 -4 5 3 15 -1 23 -7 7 -7 34 -24 61 -37 26 -13 47 -28
47 -33 0 -4 4 -7 8 -5 11 3 115 -45 124 -58 4 -5 8 -7 8 -2 0 4 17 -1 39 -12
21 -11 41 -17 45 -14 3 4 6 1 6 -5 0 -7 3 -11 8 -10 4 1 24 -4 45 -11 21 -7
46 -14 55 -16 9 -2 18 -4 20 -5 1 -2 8 -3 15 -4 6 -1 11 -8 9 -16 -3 -12 -1
-12 9 -3 12 12 42 7 35 -6 -3 -4 11 -5 30 -3 20 3 34 0 34 -6 0 -6 9 -9 20 -7
11 2 24 -3 30 -13 5 -10 10 -12 10 -4 0 6 5 12 11 12 5 0 8 -3 6 -8 -5 -6 24
-10 110 -15 18 -1 33 -4 33 -7 0 -4 52 -9 140 -14 14 0 28 -5 32 -11 5 -6 8
-5 8 3 0 7 5 10 10 7 10 -6 77 -7 168 -2 23 1 42 -2 42 -6 0 -5 5 -5 12 -1 7
4 24 9 38 10 14 0 44 4 68 8 31 5 42 4 42 -6 0 -10 2 -11 8 0 5 7 26 15 48 17
44 6 50 7 154 30 77 16 137 34 155 46 6 3 22 6 37 5 14 -1 24 3 21 8 -4 5 1 7
10 3 9 -3 17 -2 19 3 2 4 12 10 23 12 11 1 22 6 25 10 3 4 15 9 25 11 11 2 31
9 45 17 14 8 27 15 30 15 3 0 15 6 26 13 12 6 24 8 28 5 3 -3 6 -2 6 3 0 6 16
16 35 24 19 8 35 18 35 22 0 5 4 6 10 3 5 -3 25 5 42 19 18 13 40 26 48 28 8
2 25 13 39 25 19 17 28 19 38 11 10 -8 12 -7 8 4 -4 10 5 21 30 32 20 10 39
24 42 32 3 8 9 11 14 8 5 -3 9 0 9 5 0 6 7 11 17 11 9 0 13 3 10 7 -10 9 44
43 57 36 6 -3 8 -3 4 2 -4 4 7 19 24 34 18 14 49 43 70 65 22 22 44 36 53 33
9 -4 12 -1 9 7 -3 8 14 33 38 57 36 36 141 161 183 217 6 7 18 22 27 33 10 10
15 19 12 19 -4 0 0 7 7 16 14 17 28 41 55 91 11 21 22 30 33 26 13 -4 13 -3 2
5 -12 8 -10 15 8 37 11 15 21 34 21 41 0 7 6 17 14 21 8 4 14 11 13 14 -4 13
36 98 43 94 4 -3 7 1 6 8 -2 19 35 118 42 113 4 -2 8 7 9 20 4 46 6 54 16 54
6 0 8 3 4 6 -3 3 3 30 13 59 10 29 16 56 13 59 -4 3 -1 6 5 6 6 0 9 9 7 20 -2
11 -1 20 4 20 4 0 7 10 8 23 0 24 19 122 23 122 3 0 11 62 12 98 1 20 4 37 7
37 4 0 6 26 5 58 0 31 3 67 8 80 4 13 4 22 -2 22 -5 0 -7 7 -4 15 4 8 11 12
18 8 6 -4 5 1 -2 10 -8 9 -11 21 -7 27 4 6 2 17 -5 25 -6 7 -7 16 -3 18 10 6
10 48 0 64 -4 7 -3 14 3 18 6 4 5 13 -3 25 -9 16 -9 24 1 41 8 12 9 18 3 14
-6 -3 -12 2 -12 12 -1 10 -3 36 -4 58 -2 22 -4 40 -5 40 -2 0 -8 31 -14 75 -7
50 -16 93 -22 110 -6 15 -15 63 -16 88 -1 6 -6 12 -11 12 -5 0 -7 7 -4 15 4 8
2 17 -4 21 -6 3 -8 12 -5 19 3 8 1 15 -4 17 -6 2 -11 15 -12 31 -1 15 -6 27
-10 27 -4 0 -8 11 -8 25 0 14 -5 25 -11 25 -7 0 -9 10 -7 25 3 13 1 22 -4 19
-5 -3 -14 9 -20 27 -6 18 -26 61 -43 95 -24 46 -29 66 -21 74 8 8 6 9 -8 4
-13 -5 -17 -4 -12 4 4 7 2 12 -3 12 -6 0 -11 9 -11 19 0 10 -7 22 -16 25 -11
4 -14 13 -11 27 3 12 3 18 0 15 -6 -6 -40 36 -35 42 2 2 -5 10 -15 18 -10 7
-14 14 -10 14 4 0 -3 12 -17 27 -14 15 -23 30 -20 35 3 4 1 8 -4 8 -5 0 -23
21 -41 46 -18 25 -44 57 -57 71 -13 14 -21 31 -17 37 3 6 3 8 -1 4 -8 -6 -116
100 -116 114 0 4 -9 10 -20 13 -11 3 -20 13 -20 21 0 8 -3 14 -7 14 -5 0 -30
20 -58 45 -27 25 -53 45 -58 45 -4 0 -5 5 -2 10 3 6 -1 10 -10 10 -8 0 -18 7
-21 15 -4 8 -9 13 -13 11 -4 -3 -21 8 -38 22 -17 15 -50 38 -73 52 -24 14 -53
34 -65 46 -12 11 -27 18 -33 16 -7 -2 -12 1 -12 7 0 6 -7 11 -15 11 -8 0 -15
5 -15 11 0 5 -4 8 -9 5 -5 -4 -11 -3 -13 1 -4 11 -231 120 -263 128 -5 1 -23
7 -38 13 -16 7 -33 12 -38 12 -5 0 -9 4 -9 9 0 5 -8 7 -19 4 -10 -3 -22 0 -25
6 -4 6 -18 11 -32 11 -13 0 -24 5 -24 11 0 5 -3 8 -8 5 -4 -2 -32 2 -62 10
-30 9 -64 17 -75 19 -11 2 -33 7 -50 10 -66 14 -171 28 -212 28 -18 0 -33 5
-33 10 0 5 -6 4 -14 -2 -8 -7 -17 -8 -19 -4 -3 5 -24 8 -47 6 -23 -1 -38 2
-35 8 4 5 4 9 0 9 -3 0 -8 -6 -11 -14z"/>
<path d="M2796 5362 c-3 -5 1 -9 9 -9 8 0 12 4 9 9 -3 4 -7 8 -9 8 -2 0 -6 -4
-9 -8z"/>
<path d="M4470 5021 c0 -6 4 -13 10 -16 6 -3 7 1 4 9 -7 18 -14 21 -14 7z"/>
<path d="M1669 4763 c-13 -16 -12 -17 4 -4 9 7 17 15 17 17 0 8 -8 3 -21 -13z"/>
<path d="M1270 4259 c0 -5 5 -7 10 -4 6 3 10 8 10 11 0 2 -4 4 -10 4 -5 0 -10
-5 -10 -11z"/>
</g>
</svg>
